# xmcd
#
# Track frame offsets:
#	150
#	16486
#	37712
#	55851
#	70967
#	89403
#	104634
#	117320
#	136280
#	155273
#	170034
#	185306
#	205843
#	221636
#	235598
#	253635
#	271525
#	287906
#
# Disc length: 4078 seconds
#
# Revision: 1
# Processed by: cddbd v1.5.2PL0 Copyright (c) Steve Scherf et al.
# Submitted via: audiograbber 1.83.01
#
DISCID=fd0fec12
DTITLE=Various Artist - Country's Got More Heart
DYEAR=2007
DGENRE=Country
TTITLE0=Kenny Chesney - She's Got It All
TTITLE1=Diamond Rio - How Your Love Makes Me Feel
TTITLE2=Terri Clark  - Now That I Found You
TTITLE3=Terri Clark - Loving Blind
TTITLE4=Martina McBride - Wrong Again
TTITLE5=Darryl Worley - I Miss My Friend
TTITLE6=LeAnn Rimes - Blue
TTITLE7=Lonestar - I'm Already There
TTITLE8=Montgomery Gentry - If You Ever Stop Loving Me
TTITLE9=Sara Evans - Perfect
TTITLE10=Phil Vassar - In A Real Love
TTITLE11=Deana Carter - We Danced Anyway
TTITLE12=Mark Chenut - I'II Think Of Something
TTITLE13=Brad Paisley - He Didn't Have To Be
TTITLE14=Alabama - Forever's As Far I'II Go
TTITLE15=Patty Loveless - Lonely Too Long
TTITLE16=Randy Travis - Forever Together
TTITLE17=Vince Gill - Look At Us
EXTD=
EXTT0=
EXTT1=
EXTT2=
EXTT3=
EXTT4=
EXTT5=
EXTT6=
EXTT7=
EXTT8=
EXTT9=
EXTT10=
EXTT11=
EXTT12=
EXTT13=
EXTT14=
EXTT15=
EXTT16=
EXTT17=
PLAYORDER=
